<?xml version="1.0" encoding="UTF-8"?>
<svg width="64" height="64" viewBox="0 0 64 64" xmlns="http://www.w3.org/2000/svg" role="img" aria-label="츄">
  <defs>
    <linearGradient id="g" x1="0" y1="0" x2="1" y2="1">
      <stop offset="0%" stop-color="#FFB657"/>
      <stop offset="50%" stop-color="#FF9A2E"/>
      <stop offset="100%" stop-color="#FF7A00"/>
    </linearGradient>
    <filter id="s" x="-20%" y="-20%" width="140%" height="140%">
      <feDropShadow dx="0" dy="1.5" stdDeviation="1.2" flood-color="#000" flood-opacity="0.35"/>
    </filter>
    <linearGradient id="shine" x1="0" y1="0" x2="0" y2="1">
      <stop offset="0%" stop-color="#FFF" stop-opacity="0.55"/>
      <stop offset="60%" stop-color="#FFF" stop-opacity="0"/>
    </linearGradient>
  </defs>
  <!-- Heart -->
  <path filter="url(#s)" d="M32 58C10 46 2 36 2 25.5C2 15.5 10 8 19 8c5 0 9 2.2 13 6.9C36 10.2 40 8 45 8c9 0 17 7.5 17 17.5C62 36 54 46 32 58z" fill="url(#g)"/>
  <!-- Shine -->
  <path d="M32 14c-4.5-5.7-9-7-13-7C10 7 3 13.5 3 23.5C3 29 5.4 34 9 38c10-3 18-12 23-24z" fill="url(#shine)"/>
  <!-- Text -->
  <text x="32" y="36" text-anchor="middle" font-size="26" font-weight="900" fill="#ffffff"
        font-family="Pretendard, 'Noto Sans KR', 'Apple SD Gothic Neo', 'Malgun Gothic', system-ui, sans-serif"
        paint-order="stroke">
    츄
  </text>
</svg>
